<?xml version="1.0" standalone="no"?>
<!DOCTYPE svg PUBLIC "-//W3C//DTD SVG 20010904//EN"
 "http://www.w3.org/TR/2001/REC-SVG-20010904/DTD/svg10.dtd">
<svg version="1.0" xmlns="http://www.w3.org/2000/svg"
 width="513.000000pt" height="513.000000pt" viewBox="0 0 513.000000 513.000000"
 preserveAspectRatio="xMidYMid meet">
<metadata>
Created by potrace 1.14, written by Peter Selinger 2001-2017
</metadata>
<g transform="translate(0.000000,513.000000) scale(0.100000,-0.100000)"
fill="#000000" stroke="none">
<path d="M2499 4813 c-116 -121 -129 -135 -129 -138 0 -1 -17 -20 -37 -42 -21
-22 -87 -93 -148 -157 -100 -107 -141 -148 -240 -241 -18 -16 -68 -57 -110
-90 -43 -33 -84 -66 -91 -72 -7 -7 -17 -13 -23 -13 -5 0 -14 -6 -18 -13 -8
-13 -152 -97 -233 -137 -94 -45 -307 -108 -390 -115 -14 -1 -34 -6 -45 -11
-27 -11 -404 -9 -434 3 -31 12 -79 -10 -91 -41 -9 -23 -5 -472 5 -515 3 -14 7
-46 9 -71 9 -100 28 -255 32 -262 2 -4 7 -26 10 -50 3 -24 10 -68 15 -98 5
-30 12 -71 15 -90 11 -64 84 -340 120 -453 48 -152 85 -250 161 -432 36 -84
159 -330 191 -382 116 -187 221 -337 310 -448 65 -80 350 -365 365 -365 4 0
18 -11 30 -24 41 -43 251 -180 357 -232 122 -60 200 -96 215 -98 5 -2 44 -13
85 -26 125 -39 289 -31 415 20 74 31 113 48 218 98 64 31 117 60 117 64 0 5 6
8 13 8 7 0 22 8 33 18 10 9 30 23 44 30 14 7 57 37 95 67 39 30 86 66 105 79
69 49 286 270 360 366 48 63 48 62 70 89 58 71 230 327 230 343 0 4 14 27 30
51 17 25 30 50 30 55 0 6 6 17 13 24 20 22 37 56 37 75 0 9 6 24 13 32 11 14
42 79 102 216 50 113 171 461 178 510 1 11 6 25 10 31 4 7 9 29 13 50 3 22 10
46 14 54 4 8 11 35 16 60 9 51 9 50 17 70 3 8 8 29 11 45 2 17 9 51 15 77 6
25 13 66 16 90 2 23 6 53 9 65 3 12 8 48 11 80 10 82 12 98 15 98 5 0 21 197
22 268 0 31 3 57 7 57 9 0 7 320 -2 347 -12 34 -66 61 -102 51 -41 -11 -305
-16 -385 -7 -133 15 -167 21 -235 39 -273 76 -461 173 -699 360 -25 20 -156
142 -220 205 -72 71 -241 262 -291 331 -16 21 -54 67 -83 102 -49 55 -58 62
-92 62 -33 0 -44 -8 -101 -67z m337 -3734 c20 -7 54 -72 54 -103 0 -7 14 -32
31 -56 40 -55 54 -90 68 -164 12 -65 31 -116 44 -116 4 0 17 -9 28 -19 19 -17
19 -21 6 -47 -19 -36 -128 -134 -150 -134 -4 0 -5 -6 -1 -12 5 -8 0 -7 -11 2
-16 13 -18 13 -13 0 5 -17 -36 -42 -57 -34 -7 3 -22 1 -33 -5 -15 -8 -23 -7
-30 2 -8 9 -3 16 21 26 66 28 132 109 144 176 8 39 3 154 -7 175 -1 3 -1 15
-1 27 1 11 -3 24 -8 28 -6 3 -11 17 -11 30 0 13 -5 25 -10 27 -6 2 -12 13 -13
26 0 12 -5 22 -9 22 -4 0 -8 5 -8 12 0 10 -56 105 -70 118 -3 3 -12 14 -20 24
-14 18 -13 18 10 11 14 -4 34 -11 46 -16z m-524 -579 c7 -11 18 -20 25 -20 7
0 13 -4 13 -9 0 -5 20 -21 44 -35 62 -36 69 -51 20 -42 -21 4 -52 9 -69 11
-16 3 -43 9 -60 15 -29 10 -30 10 -2 6 15 -2 27 1 27 5 0 9 -15 13 -37 10 -8
-1 -10 5 -7 14 4 11 0 15 -16 15 -30 0 -22 32 10 41 38 11 39 10 52 -11z"/>
</g>
</svg>
