<?xml version="1.0" standalone="no"?>
<!DOCTYPE svg PUBLIC "-//W3C//DTD SVG 20010904//EN"
 "http://www.w3.org/TR/2001/REC-SVG-20010904/DTD/svg10.dtd">
<svg version="1.0" xmlns="http://www.w3.org/2000/svg"
 width="1280.000000pt" height="544.000000pt" viewBox="0 0 1280.000000 544.000000"
 preserveAspectRatio="xMidYMid meet">
<metadata>
Created by potrace 1.15, written by Peter Selinger 2001-2017
</metadata>
<g transform="translate(0.000000,544.000000) scale(0.100000,-0.100000)"
fill="#000000" stroke="none">
<path d="M2445 5114 c-1237 -178 -2269 -329 -2293 -335 -54 -15 -127 -79 -143
-126 -14 -43 -6 -120 17 -164 9 -18 493 -787 1076 -1708 1127 -1784 1102
-1747 1221 -1814 71 -39 151 -66 227 -77 64 -9 211 11 2232 300 2610 374 2420
346 2465 365 48 20 80 50 105 99 25 49 21 125 -10 185 -12 23 -498 794 -1079
1714 -840 1328 -1069 1683 -1112 1725 -95 92 -269 163 -396 161 -33 -1 -1072
-147 -2310 -325z"/>
<path d="M7390 1454 c-167 -10 -408 -43 -2375 -329 -2251 -327 -2262 -329
-2312 -350 -39 -17 -43 -42 -8 -51 14 -3 23 -10 20 -14 -7 -12 0 -14 310 -69
1464 -262 2882 -462 4383 -616 252 -26 253 -26 455 -10 1590 124 3081 364
4591 741 249 62 350 97 343 119 -6 17 -49 33 -117 44 -36 6 -1118 128 -2405
271 -2314 258 -2343 261 -2580 264 -132 2 -269 2 -305 0z"/>
</g>
</svg>
